<?xml version="1.0" encoding="UTF-8" standalone="no" ?>
<!DOCTYPE svg PUBLIC "-//W3C//DTD SVG 1.1//EN" "http://www.w3.org/Graphics/SVG/1.1/DTD/svg11.dtd">
<svg xmlns="http://www.w3.org/2000/svg" xmlns:xlink="http://www.w3.org/1999/xlink" version="1.1" width="1010" height="160" viewBox="0 0 1010 160" xml:space="preserve">
<desc>Created with Fabric.js 3.6.6</desc>
<defs>
</defs>
<g transform="matrix(1.1 0 0 1.1 505.4 80.1)"  >
<g style=""   >
		<g transform="matrix(1 0 0 1 -387.43 0.03)"  >
<path style="stroke: none; stroke-width: 1; stroke-dasharray: none; stroke-linecap: butt; stroke-dashoffset: 0; stroke-linejoin: miter; stroke-miterlimit: 4; fill: rgb(255,255,255); fill-rule: nonzero; opacity: 1;"  transform=" translate(-207.85, -420.98)" d="M 207.85 486.12 c 35.98 0 65.14 -29.17 65.14 -65.15 c 0 -35.98 -29.17 -65.14 -65.14 -65.14 s -65.15 29.17 -65.15 65.14 C 142.71 456.95 171.87 486.12 207.85 486.12" stroke-linecap="round" />
</g>
		<g transform="matrix(1 0 0 1 -375.64 16.72)" clip-path="url(#CLIPPATH_11)"  >
<linearGradient id="SVGID_7" gradientUnits="userSpaceOnUse" gradientTransform="matrix(15.04 26.15 26.15 -15.04 -22020.09 12661.71)"  x1="8.185452e-12" y1="842.0129" x2="1" y2="842.0129">
<stop offset="0%" style="stop-color:rgb(229,40,38);stop-opacity: 1"/>
<stop offset="100%" style="stop-color:rgb(194,37,30);stop-opacity: 1"/>
</linearGradient>
<clipPath id="CLIPPATH_11" >
	<path transform="matrix(1 0 0 1 0.94 -0.49) translate(-220.57, -437.18)" d="M 246.51 418.1 c -13.39 12.27 -26.41 17.05 -41.19 15.16 c -10.81 -1.11 -17.87 0.61 -27.57 8.9 c -12.16 11.53 -9.66 23.05 -8.9 26.07 c 1.04 4.16 2.81 6.68 5.04 8.68 c 0.15 0.39 0.26 0.67 0.26 0.67 c 13.71 6.39 21.18 9.97 35.8 8.78 c 34.98 -2.86 60.57 -25.76 62.96 -64.07 c 0.79 -12.6 -2.4 -24.51 -8.6 -34.51 C 262.34 398.22 256.24 409.18 246.51 418.1" stroke-linecap="round" />
</clipPath>
<polygon style="stroke: none; stroke-width: 1; stroke-dasharray: none; stroke-linecap: butt; stroke-dashoffset: 0; stroke-linejoin: miter; stroke-miterlimit: 4; fill: url(#SVGID_7); fill-rule: nonzero; opacity: 1;"  points="27.19,-96.6 97.17,25.1 -27.19,96.61 -97.17,-25.09 " />
</g>
		<g transform="matrix(1 0 0 1 -387.87 39.69)"  >
<path style="stroke: none; stroke-width: 1; stroke-dasharray: none; stroke-linecap: butt; stroke-dashoffset: 0; stroke-linejoin: miter; stroke-miterlimit: 4; fill: rgb(255,255,255); fill-rule: nonzero; opacity: 1;"  transform=" translate(-207.41, -460.63)" d="M 216.17 460.63 c 0 4.84 -3.92 8.76 -8.76 8.76 c -4.84 0 -8.76 -3.92 -8.76 -8.76 c 0 -4.84 3.92 -8.76 8.76 -8.76 C 212.24 451.87 216.17 455.79 216.17 460.63" stroke-linecap="round" />
</g>
		<g transform="matrix(1 0 0 1 196.7 -42.24)"  >
<path style="stroke: none; stroke-width: 1; stroke-dasharray: none; stroke-linecap: butt; stroke-dashoffset: 0; stroke-linejoin: miter; stroke-miterlimit: 4; fill: rgb(100,99,99); fill-rule: nonzero; opacity: 1;"  transform=" translate(-791.98, -378.7)" d="M 1000.1 353.98 v 49.43 h 23.05 v -6.65 h -15.72 v -15.95 h 11.72 v -5.9 h -11.72 V 360.7 h 15.04 v -6.73 H 1000.1 z M 973.57 353.98 v 49.43 h 21.47 v -6.8 h -14.36 v -42.63 H 973.57 z M 952.86 361.38 l 5.06 24.42 h -10.05 L 952.86 361.38 z M 946.74 391.54 h 12.32 l 2.49 11.87 h 7.56 l -11.87 -49.43 h -8.54 l -11.79 49.43 h 7.41 L 946.74 391.54 z M 905.85 353.98 v 49.43 h 6.5 v -32.2 l 15.04 32.2 h 4.99 v -49.43 h -6.42 v 31.22 l -14.59 -31.22 H 905.85 z M 891.86 388.9 c 0 6.27 -2.04 8.84 -6.35 8.84 c -4.39 0 -6.35 -2.57 -6.35 -8.84 v -20.33 c 0 -6.2 2.04 -8.77 6.35 -8.77 c 4.38 0 6.35 2.57 6.35 8.77 V 388.9 z M 885.52 353.3 c -8.99 0 -13.68 5.67 -13.68 15.27 v 20.33 c 0 9.52 4.69 15.19 13.68 15.19 c 8.99 0 13.76 -5.67 13.76 -15.19 v -20.33 C 899.27 358.97 894.51 353.3 885.52 353.3 M 857.02 403.41 h 7.48 v -49.43 h -7.48 V 403.41 z M 850.22 396.76 h -16.71 l 16.78 -38.17 v -4.61 h -23.89 v 6.73 h 15.87 l -16.86 38.17 v 4.54 h 24.79 V 396.76 z M 806.76 361.38 l 5.06 24.42 h -10.05 L 806.76 361.38 z M 800.63 391.54 h 12.32 l 2.49 11.87 h 7.56 l -11.87 -49.43 h -8.54 l -11.79 49.43 h 7.41 L 800.63 391.54 z M 759.74 353.98 v 49.43 h 6.5 v -32.2 l 15.04 32.2 h 4.99 v -49.43 h -6.43 v 31.22 l -14.59 -31.22 H 759.74 z M 726.56 361.38 l 5.06 24.42 h -10.05 L 726.56 361.38 z M 720.44 391.54 h 12.32 l 2.49 11.87 h 7.56 l -11.87 -49.43 h -8.54 l -11.79 49.43 h 7.41 L 720.44 391.54 z M 687.41 353.98 v 49.43 h 21.47 v -6.8 h -14.36 v -42.63 H 687.41 z M 673.42 388.9 c 0 6.27 -2.04 8.84 -6.35 8.84 c -4.38 0 -6.35 -2.57 -6.35 -8.84 v -20.33 c 0 -6.2 2.04 -8.77 6.35 -8.77 c 4.38 0 6.35 2.57 6.35 8.77 V 388.9 z M 667.07 353.3 c -8.99 0 -13.68 5.67 -13.68 15.27 v 20.33 c 0 9.52 4.69 15.19 13.68 15.19 s 13.76 -5.67 13.76 -15.19 v -20.33 C 680.83 358.97 676.07 353.3 667.07 353.3 M 639.94 353.98 v 35.53 c 0 5.59 -2.27 7.71 -6.35 7.71 c -3.7 0 -6.35 -1.96 -6.35 -7.71 v -35.53 h -7.41 v 35.53 c 0 9.37 4.91 14.59 13.76 14.59 c 8.77 0 13.68 -5.29 13.68 -14.89 v -35.22 H 639.94 z M 602.9 353.3 c -7.94 0 -12.85 5.75 -12.85 15.19 v 21.16 c 0 8.69 4.84 14.44 12.7 14.44 c 6.8 0 10.89 -3.33 12.17 -11.26 l -5.59 -1.74 c -0.91 5.06 -2.64 6.73 -5.97 6.73 c -4.01 0 -5.97 -3.25 -5.97 -8.16 v -21.16 c 0 -5.67 1.96 -8.69 6.05 -8.69 c 3.17 0 5.06 2.12 5.82 6.27 l 5.59 -1.81 C 613.71 357.83 609.25 353.3 602.9 353.3 M 573.35 353.3 c -7.48 0 -11.94 5.44 -11.94 12.62 c 0 14.89 17.46 14.59 17.46 25.55 c 0 4.31 -1.74 6.35 -5.44 6.35 c -3.02 0 -5.74 -1.97 -6.88 -7.03 l -5.74 1.81 c 1.28 7.41 6.5 11.49 12.7 11.49 c 7.56 0 12.4 -4.84 12.4 -13.61 c 0 -15.12 -17.16 -15.04 -17.16 -24.94 c 0 -3.7 1.51 -5.97 5.14 -5.97 c 3.17 0 5.52 1.96 6.58 6.12 l 5.29 -2.19 C 583.93 357.23 580.07 353.3 573.35 353.3" stroke-linecap="round" />
</g>
		<g transform="matrix(1 0 0 1 196.7 32.7)"  >
<path style="stroke: none; stroke-width: 1; stroke-dasharray: none; stroke-linecap: butt; stroke-dashoffset: 0; stroke-linejoin: miter; stroke-miterlimit: 4; fill: rgb(100,99,99); fill-rule: nonzero; opacity: 1;"  transform=" translate(-791.98, -453.64)" d="M 1012.98 467.71 c 0 8.62 -2.8 12.15 -8.73 12.15 c -6.03 0 -8.73 -3.53 -8.73 -12.15 v -27.94 c 0 -8.52 2.8 -12.05 8.73 -12.05 c 6.03 0 8.73 3.53 8.73 12.05 V 467.71 z M 1004.25 418.79 c -12.36 0 -18.8 7.79 -18.8 20.98 v 27.94 c 0 13.09 6.44 20.88 18.8 20.88 c 12.36 0 18.91 -7.79 18.91 -20.88 v -27.94 C 1023.16 426.58 1016.61 418.79 1004.25 418.79 M 965.09 487.66 h 10.28 v -67.94 h -10.28 V 487.66 z M 936.94 418.68 c -13.09 0 -19.22 9.04 -19.22 22.33 v 26.28 c 0 14.13 6.65 21.29 17.04 21.29 c 4.67 0 8.73 -1.77 11.74 -5.19 v 4.26 h 8.31 V 453.9 h -15.58 v 7.27 h 6.75 v 12.98 c -2.18 4.05 -4.88 5.3 -8.52 5.3 c -6.23 0 -9.66 -3.84 -9.66 -12.26 v -26.07 c 0 -9.04 3.12 -13.5 9.87 -13.5 c 4.47 0 7.48 2.49 9.35 8.73 l 7.69 -2.49 C 952.83 424.29 946.19 418.68 936.94 418.68 M 892.07 418.68 c -13.09 0 -19.22 9.04 -19.22 22.33 v 26.28 c 0 14.13 6.65 21.29 17.04 21.29 c 4.67 0 8.72 -1.77 11.74 -5.19 v 4.26 h 8.31 V 453.9 h -15.58 v 7.27 h 6.75 v 12.98 c -2.18 4.05 -4.88 5.3 -8.52 5.3 c -6.23 0 -9.66 -3.84 -9.66 -12.26 v -26.07 c 0 -9.04 3.12 -13.5 9.87 -13.5 c 4.47 0 7.48 2.49 9.35 8.73 l 7.69 -2.49 C 907.96 424.29 901.31 418.68 892.07 418.68 M 847.29 429.9 l 6.96 33.55 h -13.82 L 847.29 429.9 z M 838.88 471.35 h 16.93 l 3.43 16.31 h 10.39 l -16.31 -67.94 h -11.74 l -16.21 67.94 h 10.18 L 838.88 471.35 z M 805.43 418.79 c -10.28 0 -16.41 7.48 -16.41 17.35 c 0 20.46 24 20.05 24 35.11 c 0 5.92 -2.39 8.73 -7.48 8.73 c -4.16 0 -7.9 -2.7 -9.45 -9.66 l -7.9 2.49 c 1.77 10.18 8.93 15.79 17.45 15.79 c 10.39 0 17.04 -6.65 17.04 -18.7 c 0 -20.78 -23.58 -20.67 -23.58 -34.28 c 0 -5.09 2.08 -8.21 7.06 -8.21 c 4.36 0 7.58 2.7 9.04 8.41 l 7.27 -3.01 C 819.97 424.19 814.67 418.79 805.43 418.79 M 767.41 418.79 c -10.28 0 -16.41 7.48 -16.41 17.35 c 0 20.46 24 20.05 24 35.11 c 0 5.92 -2.39 8.73 -7.48 8.73 c -4.15 0 -7.89 -2.7 -9.45 -9.66 l -7.89 2.49 c 1.77 10.18 8.93 15.79 17.45 15.79 c 10.39 0 17.04 -6.65 17.04 -18.7 c 0 -20.78 -23.58 -20.67 -23.58 -34.28 c 0 -5.09 2.08 -8.21 7.06 -8.21 c 4.36 0 7.58 2.7 9.04 8.41 l 7.27 -3.01 C 781.95 424.19 776.65 418.79 767.41 418.79 M 725.44 429.9 l 6.96 33.55 h -13.82 L 725.44 429.9 z M 717.03 471.35 h 16.93 l 3.43 16.31 h 10.39 l -16.31 -67.94 h -11.74 l -16.21 67.94 h 10.18 L 717.03 471.35 z M 688.05 419.72 l -15.58 41.55 l -15.48 -41.55 h -9.35 v 67.94 h 9.14 v -43.84 l 13.4 32.41 h 4.57 l 13.5 -32.41 v 43.84 h 9.14 v -67.94 H 688.05 z M 608.58 487.66 h 10.28 v -67.94 h -10.28 V 487.66 z M 588.33 441.33 v 25.03 c 0 9.04 -2.91 12.47 -8.93 12.47 h -8.52 v -50.07 h 8.52 C 585.42 428.76 588.33 432.39 588.33 441.33 M 560.8 419.72 v 67.94 h 18.59 c 12.15 0 19.11 -7.89 19.11 -21.09 v -25.66 c 0 -13.3 -6.96 -21.19 -19.11 -21.19 H 560.8 z" stroke-linecap="round" />
</g>
		<g transform="matrix(1 0 0 1 -175.66 -0.41)"  >
<path style="stroke: none; stroke-width: 1; stroke-dasharray: none; stroke-linecap: butt; stroke-dashoffset: 0; stroke-linejoin: miter; stroke-miterlimit: 4; fill: rgb(100,99,99); fill-rule: nonzero; opacity: 1;"  transform=" translate(-419.62, -420.53)" d="M 506.67 444.91 c 0 14.01 -2.96 18.16 -10.07 18.16 c -7.3 0 -10.26 -4.15 -10.26 -18.16 v -48.76 c 0 -13.62 2.96 -17.37 10.26 -17.37 c 7.3 0 10.07 3.75 10.07 17.37 V 444.91 z M 496.6 354.11 c -25.07 0 -37.9 15.59 -37.9 42.04 v 48.76 c 0 26.45 12.83 42.04 37.9 42.04 s 37.9 -15.59 37.9 -42.04 v -48.76 C 534.5 369.71 521.67 354.11 496.6 354.11 M 411.72 386.29 l 8.09 51.52 h -16.38 L 411.72 386.29 z M 400.07 459.32 h 23.09 l 4.15 25.86 h 28.42 L 428.3 355.89 h -32.77 l -27.24 129.29 h 27.83 L 400.07 459.32 z M 304.73 355.89 v 25.66 h 20.73 v 103.63 h 28.03 V 381.55 h 20.73 v -25.66 H 304.73 z" stroke-linecap="round" />
</g>
		<g transform="matrix(1 0 0 1 446.83 -55.93)"  >
<path style="stroke: none; stroke-width: 1; stroke-dasharray: none; stroke-linecap: butt; stroke-dashoffset: 0; stroke-linejoin: miter; stroke-miterlimit: 4; fill: rgb(100,99,99); fill-rule: nonzero; opacity: 1;"  transform=" translate(-1042.11, -365)" d="M 1040.8 360.33 h 1.47 c 1.23 0 1.56 0.49 1.56 1.8 c 0 1.31 -0.33 1.88 -1.47 1.88 h -1.56 V 360.33 z M 1044.16 371.4 h 3.11 l -2.62 -5.82 c 1.39 -0.49 2.13 -1.8 2.13 -3.61 c 0 -2.38 -1.31 -3.93 -4.34 -3.93 h -4.51 v 13.36 h 2.87 v -5.24 h 1.23 L 1044.16 371.4 z M 1035.64 362.46 c 0 -4.34 1.97 -6.8 6.39 -6.8 c 4.51 0 6.56 2.46 6.56 6.8 v 4.84 c 0 4.42 -2.05 6.88 -6.56 6.88 c -4.43 0 -6.39 -2.46 -6.39 -6.88 V 362.46 z M 1050.8 362.46 c 0 -5 -2.95 -8.85 -8.69 -8.85 c -5.82 0 -8.69 3.85 -8.69 8.85 v 4.84 c 0 5 2.87 9.1 8.69 9.1 c 5.74 0 8.69 -4.1 8.69 -9.1 V 362.46 z" stroke-linecap="round" />
</g>
		<g transform="matrix(1 0 0 1 -400.81 -16.16)" clip-path="url(#CLIPPATH_12)"  >
<linearGradient id="SVGID_8" gradientUnits="userSpaceOnUse" gradientTransform="matrix(-9.27 -27.07 -27.07 9.27 22650.14 -7420.83)"  x1="11.2104" y1="832.8154" x2="12.2104" y2="832.8154">
<stop offset="0%" style="stop-color:rgb(0,146,61);stop-opacity: 1"/>
<stop offset="98.59%" style="stop-color:rgb(0,127,53);stop-opacity: 1"/>
<stop offset="100%" style="stop-color:rgb(0,127,53);stop-opacity: 1"/>
</linearGradient>
<clipPath id="CLIPPATH_12" >
	<path transform="matrix(1 0 0 1 0.01 0.01) translate(-194.45, -404.79)" d="M 208.26 355.48 c -1 0 -2.02 0.02 -3.08 0.04 c -37.06 0.95 -62.96 31.64 -62.96 62.96 c 0 12.63 2.09 25.63 8.28 35.63 c 1.97 -10.43 8.07 -21.4 17.8 -30.32 c 13.39 -12.27 26.41 -17.05 41.19 -15.16 c 10.81 1.11 17.87 -0.62 27.57 -8.9 c 7.9 -7.48 9.61 -14.97 9.63 -20.12 v -0.23 c -0.01 -2.67 -0.47 -4.69 -0.73 -5.72 c -1.04 -4.16 -2.81 -6.68 -5.04 -8.68 c -0.15 -0.39 -0.26 -0.67 -0.26 -0.67 c -11.27 -6.61 -19.4 -8.8 -32.01 -8.83 H 208.26 z" stroke-linecap="round" />
</clipPath>
<polygon style="stroke: none; stroke-width: 1; stroke-dasharray: none; stroke-linecap: butt; stroke-dashoffset: 0; stroke-linejoin: miter; stroke-miterlimit: 4; fill: url(#SVGID_8); fill-rule: nonzero; opacity: 1;"  points="-41.27,81.33 -82.46,-38.97 41.28,-81.33 82.47,38.97 " />
</g>
		<g transform="matrix(1 0 0 1 -387.87 -0.01)"  >
<path style="stroke: rgb(100,99,99); stroke-width: 4.12; stroke-dasharray: none; stroke-linecap: butt; stroke-dashoffset: 0; stroke-linejoin: miter; stroke-miterlimit: 4; fill: none; fill-rule: nonzero; opacity: 1;"  transform=" translate(-207.4, -420.94)" d="M 207.4 486.53 c 36.22 0 65.59 -29.36 65.59 -65.59 c 0 -36.22 -29.37 -65.59 -65.59 -65.59 s -65.59 29.37 -65.59 65.59 C 141.82 457.17 171.18 486.53 207.4 486.53 z" stroke-linecap="round" />
</g>
		<g transform="matrix(1 0 0 1 -387.87 -39.68)"  >
<path style="stroke: none; stroke-width: 1; stroke-dasharray: none; stroke-linecap: butt; stroke-dashoffset: 0; stroke-linejoin: miter; stroke-miterlimit: 4; fill: rgb(255,255,255); fill-rule: nonzero; opacity: 1;"  transform=" translate(-207.41, -381.26)" d="M 216.17 381.26 c 0 4.84 -3.92 8.76 -8.76 8.76 c -4.84 0 -8.76 -3.92 -8.76 -8.76 c 0 -4.84 3.92 -8.76 8.76 -8.76 C 212.24 372.5 216.17 376.42 216.17 381.26" stroke-linecap="round" />
</g>
</g>
</g>
</svg>